Coordinates
version=1
nRows=29
nColumns=15
inDegrees=yes

Units are S.I. units (second, meters, Newtons, ...)
Angles are in degrees.

endheader
time	sacrum_pitch	sacrum_roll	sacrum_yaw	sacrum_x	sacrum_y	sacrum_z	sacroiliac_flx	hip_flx	hip_add	hip_int	knee_flx	ankle_flx	ankle_add	ankle_int
3.10000000	30.00000000	0.00000000	0.00000000	0.08319150	0.06513989	0.00000000	0.00000000	-9.16628391	0.00000000	0.00000000	-98.07202477	-50.46807002	0.00000000	0.00000000
3.10500000	30.00000000	0.00000000	0.00000000	0.08313556	0.06506671	0.00000000	0.00000000	-9.20561559	0.00000000	0.00000000	-98.04851286	-50.48728391	0.00000000	0.00000000
3.11000000	30.00000000	0.00000000	0.00000000	0.08307409	0.06502387	0.00000000	0.00000000	-9.16700266	0.00000000	0.00000000	-98.10752033	-50.54500102	0.00000000	0.00000000
3.11500000	30.00000000	0.00000000	0.00000000	0.08299496	0.06497356	0.00000000	0.00000000	-9.03460806	0.00000000	0.00000000	-98.33218863	-50.64721136	0.00000000	0.00000000
3.12000000	30.00000000	0.00000000	0.00000000	0.08286095	0.06490375	0.00000000	0.00000000	-8.97688925	0.00000000	0.00000000	-98.52770636	-50.71023391	0.00000000	0.00000000
3.12500000	30.00000000	0.00000000	0.00000000	0.08274625	0.06486191	0.00000000	0.00000000	-8.98346393	0.00000000	0.00000000	-98.61572690	-50.75087884	0.00000000	0.00000000
3.13000000	30.00000000	0.00000000	0.00000000	0.08266105	0.06482355	0.00000000	0.00000000	-8.85920554	0.00000000	0.00000000	-98.81744836	-50.81871898	0.00000000	0.00000000
3.13500000	30.00000000	0.00000000	0.00000000	0.08257688	0.06478726	0.00000000	0.00000000	-8.77295155	0.00000000	0.00000000	-98.94330486	-50.80843284	0.00000000	0.00000000
3.14000000	30.00000000	0.00000000	0.00000000	0.08246870	0.06475957	0.00000000	0.00000000	-8.63824201	0.00000000	0.00000000	-98.97067742	-50.84274651	0.00000000	0.00000000
3.14500000	30.00000000	0.00000000	0.00000000	0.08233621	0.06470070	0.00000000	0.00000000	-8.64565746	0.00000000	0.00000000	-99.01296787	-50.84225034	0.00000000	0.00000000
3.15000000	30.00000000	0.00000000	0.00000000	0.08219247	0.06464928	0.00000000	0.00000000	-8.63906730	0.00000000	0.00000000	-99.09863769	-50.96541654	0.00000000	0.00000000
3.15500000	30.00000000	0.00000000	0.00000000	0.08207574	0.06462219	0.00000000	0.00000000	-8.69620211	0.00000000	0.00000000	-99.15435788	-50.91978650	0.00000000	0.00000000
3.16000000	30.00000000	0.00000000	0.00000000	0.08196154	0.06457484	0.00000000	0.00000000	-8.56942201	0.00000000	0.00000000	-99.10314744	-51.03907790	0.00000000	0.00000000
3.16500000	30.00000000	0.00000000	0.00000000	0.08186663	0.06452753	0.00000000	0.00000000	-8.40720568	0.00000000	0.00000000	-99.24320168	-51.07282967	0.00000000	0.00000000
3.17000000	30.00000000	0.00000000	0.00000000	0.08175509	0.06447451	0.00000000	0.00000000	-8.19735037	0.00000000	0.00000000	-99.24777600	-50.87596817	0.00000000	0.00000000
3.17500000	30.00000000	0.00000000	0.00000000	0.08160810	0.06446762	0.00000000	0.00000000	-8.32271608	0.00000000	0.00000000	-99.27207240	-51.02852314	0.00000000	0.00000000
3.18000000	30.00000000	0.00000000	0.00000000	0.08147270	0.06445419	0.00000000	0.00000000	-8.27382465	0.00000000	0.00000000	-99.41468681	-51.06097053	0.00000000	0.00000000
3.18500000	30.00000000	0.00000000	0.00000000	0.08136208	0.06442526	0.00000000	0.00000000	-8.27682938	0.00000000	0.00000000	-99.42451628	-51.13288775	0.00000000	0.00000000
3.19000000	30.00000000	0.00000000	0.00000000	0.08127438	0.06439487	0.00000000	0.00000000	-8.16731877	0.00000000	0.00000000	-99.42396431	-51.32110553	0.00000000	0.00000000
3.19500000	30.00000000	0.00000000	0.00000000	0.08118765	0.06435366	0.00000000	0.00000000	-8.00936071	0.00000000	0.00000000	-99.56605677	-51.17029848	0.00000000	0.00000000
3.20000000	30.00000000	0.00000000	0.00000000	0.08108579	0.06431947	0.00000000	0.00000000	-7.95580151	0.00000000	0.00000000	-99.66249473	-51.42369853	0.00000000	0.00000000
3.20500000	30.00000000	0.00000000	0.00000000	0.08098782	0.06430336	0.00000000	0.00000000	-8.02902817	0.00000000	0.00000000	-99.56971688	-51.38576958	0.00000000	0.00000000
3.21000000	30.00000000	0.00000000	0.00000000	0.08087621	0.06425536	0.00000000	0.00000000	-7.98381502	0.00000000	0.00000000	-99.56537972	-51.42706627	0.00000000	0.00000000
3.21500000	30.00000000	0.00000000	0.00000000	0.08077544	0.06422552	0.00000000	0.00000000	-7.92517613	0.00000000	0.00000000	-99.67352641	-51.47371656	0.00000000	0.00000000
3.22000000	30.00000000	0.00000000	0.00000000	0.08069720	0.06418852	0.00000000	0.00000000	-7.89570318	0.00000000	0.00000000	-99.78950983	-51.56287099	0.00000000	0.00000000
3.22500000	30.00000000	0.00000000	0.00000000	0.08062341	0.06413658	0.00000000	0.00000000	-7.95846025	0.00000000	0.00000000	-99.78024342	-51.65992808	0.00000000	0.00000000
3.23000000	30.00000000	0.00000000	0.00000000	0.08054833	0.06407530	0.00000000	0.00000000	-7.96747041	0.00000000	0.00000000	-99.69617751	-51.62029029	0.00000000	0.00000000
3.23500000	30.00000000	0.00000000	0.00000000	0.08048331	0.06403369	0.00000000	0.00000000	-7.87305771	0.00000000	0.00000000	-99.78539203	-51.78905503	0.00000000	0.00000000
3.24000000	30.00000000	0.00000000	0.00000000	0.08041347	0.06398778	0.00000000	0.00000000	-7.85222327	0.00000000	0.00000000	-99.86015207	-51.80837860	0.00000000	0.00000000
